<svg width="319" height="78" viewBox="0 0 319 78" fill="none" xmlns="http://www.w3.org/2000/svg">
<g clip-path="url(#clip0_9_2)">
<path d="M81.9606 43.5996C78.8146 40.9046 74.3973 39.5551 68.7089 39.5551C65.7468 39.5551 62.8326 39.9487 59.9664 40.7399C57.0962 41.5311 54.6457 42.6477 52.611 44.0855L56.4966 51.6846C57.8357 50.6162 59.4667 49.7687 61.3895 49.1382C63.3083 48.5116 65.2631 48.1983 67.2538 48.1983C70.168 48.1983 72.3306 48.849 73.7418 50.1503C75.1529 51.4516 75.8564 53.263 75.8564 55.5885H67.2538C63.4602 55.5885 60.3861 56.0665 58.0236 57.0183C55.6651 57.9702 53.9422 59.2836 52.8548 60.9584C51.7675 62.6292 51.2239 64.5812 51.2239 66.8143C51.2239 69.0474 51.7795 70.8829 52.8868 72.6019C53.9981 74.321 55.5931 75.6825 57.6758 76.6826C59.7585 77.6827 62.257 78.1807 65.1711 78.1807C68.4571 78.1807 71.1394 77.5542 73.2221 76.297C74.6332 75.4455 75.7365 74.325 76.552 72.9393V77.6184H86.6816V56.2151C86.6816 50.4997 85.1106 46.2946 81.9646 43.5956L81.9606 43.5996ZM72.7304 69.5696C71.2953 70.4291 69.6763 70.8588 67.8734 70.8588C65.9746 70.8588 64.4836 70.4532 63.3962 69.6378C62.3089 68.8265 61.7653 67.722 61.7653 66.3243C61.7653 65.0712 62.237 64.0229 63.1884 63.1875C64.1358 62.3521 65.8827 61.9344 68.4251 61.9344H75.8484V65.7701C75.2008 67.4449 74.1575 68.7101 72.7264 69.5696H72.7304Z" fill="#F5F5F5"/>
<path d="M126.577 46.6681V40.1134H94.3768V48.4795H112.905L93.8931 71.0677V77.6225H127.2V69.2563H107.561L126.577 46.6681Z" fill="#F5F5F5"/>
<path d="M310.178 41.6155C308.607 42.4951 307.311 43.6397 306.292 45.0455V40.1173H295.954V77.6224H306.78V59.9141C306.78 56.3355 307.695 53.6968 309.522 52.0019C311.349 50.3069 313.743 49.4555 316.701 49.4555C317.117 49.4555 317.509 49.4675 317.881 49.4916C318.253 49.5157 318.668 49.5519 319.132 49.5961V39.5551C315.614 39.5551 312.632 40.2419 310.182 41.6114L310.178 41.6155Z" fill="#F5F5F5"/>
<path d="M44.8359 50.7809H22.354V59.8419H44.8359V50.7809Z" fill="#F5F5F5"/>
<path d="M22.354 59.8458H11.113V77.6224H22.354V59.8458Z" fill="#F5F5F5"/>
<path d="M47.822 37.8842V28.8192H11.113V50.7809H22.354V37.8842H47.822Z" fill="#F5F5F5"/>
<path d="M286.169 48.5839C284.458 45.6801 282.131 43.4469 279.197 41.8926C276.259 40.3342 272.961 39.5551 269.307 39.5551C265.653 39.5551 262.112 40.3824 259.106 42.0292C258.538 42.3384 258.002 42.6798 257.483 43.0333V55.3074H249.679C249.492 56.448 249.392 57.6288 249.392 58.8619C249.392 62.581 250.271 65.8906 252.03 68.7984C253.789 71.7023 256.271 73.9916 259.489 75.6665C262.703 77.3413 266.441 78.1767 270.694 78.1767C274.072 78.1767 277.054 77.6546 279.645 76.6063C282.235 75.562 284.386 74.0639 286.097 72.112L280.336 65.8383C279.089 67.0473 277.71 67.955 276.207 68.5574C274.704 69.1639 272.957 69.4651 270.966 69.4651C268.747 69.4651 266.813 69.0595 265.174 68.2442C263.531 67.4329 262.26 66.248 261.356 64.6896C260.868 63.8462 260.513 62.9265 260.293 61.9344H288.523C288.567 61.4725 288.615 60.9705 288.663 60.4363C288.711 59.9021 288.731 59.4242 288.731 59.0065C288.731 54.962 287.875 51.4878 286.165 48.5839H286.169ZM260.177 55.5885C260.357 54.4237 260.681 53.3594 261.188 52.4155C261.976 50.9496 263.071 49.8129 264.486 48.9976C265.897 48.1863 267.528 47.7766 269.379 47.7766C271.23 47.7766 272.849 48.1823 274.236 48.9976C275.623 49.8129 276.71 50.9375 277.498 52.3794C278.018 53.3313 278.349 54.4077 278.525 55.5845H260.181L260.177 55.5885Z" fill="#F5F5F5"/>
<path d="M240.197 46.7725C238.878 44.3305 237.075 42.5191 234.785 41.3343C232.494 40.1495 229.868 39.5551 226.91 39.5551C223.348 39.5551 220.19 40.4146 217.44 42.1336C215.869 43.1136 214.553 44.2984 213.47 45.676C212.603 44.2583 211.499 43.0855 210.152 42.1697C207.586 40.4266 204.588 39.5551 201.166 39.5551C198.112 39.5551 195.394 40.2178 193.011 41.5432C191.636 42.3063 190.449 43.2823 189.437 44.455V40.1133H179.1V68.5574H189.925V58.7976C189.925 56.5685 190.273 54.733 190.964 53.2911C191.66 51.8492 192.631 50.7688 193.878 50.0499C195.126 49.3309 196.537 48.9695 198.112 48.9695C200.378 48.9695 202.125 49.6924 203.349 51.1303C204.572 52.5722 205.187 54.8013 205.187 57.8216V77.6224H216.013V58.7976C216.013 56.5685 216.36 54.733 217.052 53.2911C217.747 51.8492 218.719 50.7688 219.966 50.0499C221.213 49.3309 222.624 48.9695 224.199 48.9695C226.466 48.9695 228.225 49.6924 229.472 51.1303C230.723 52.5722 231.347 54.8013 231.347 57.8216V77.6224H242.172V56.1508C242.172 52.3392 241.513 49.2145 240.193 46.7725H240.197Z" fill="#F5F5F5"/>
<path d="M200.75 68.5574H189.925V77.6184H200.75V68.5574Z" fill="#F5F5F5"/>
<path d="M169.25 48.829C167.491 45.9492 165.064 43.68 161.962 42.0333C159.976 40.9769 157.813 40.262 155.483 39.8805V49.3471C155.75 49.4676 156.018 49.5881 156.274 49.7367C157.709 50.5721 158.84 51.7569 159.676 53.2912C160.507 54.8255 160.923 56.6851 160.923 58.87C160.923 61.0549 160.507 62.8542 159.676 64.4126C158.844 65.971 157.709 67.1678 156.274 68.0032C154.839 68.8387 153.22 69.2564 151.417 69.2564C149.614 69.2564 147.995 68.8387 146.56 68.0032C145.125 67.1678 143.982 65.971 143.126 64.4126C142.271 62.8542 141.843 61.0067 141.843 58.87C141.843 56.7333 142.271 54.8255 143.126 53.2912C143.982 51.7569 145.125 50.5721 146.56 49.7367C146.824 49.5841 147.104 49.4596 147.38 49.331V39.8724C145.009 40.25 142.826 40.9649 140.836 42.0333C137.758 43.684 135.331 45.9613 133.548 48.8651C131.769 51.769 130.878 55.1066 130.878 58.87C130.878 62.6333 131.769 65.8987 133.548 68.8065C135.327 71.7104 137.758 73.9997 140.836 75.6746C143.914 77.3494 147.44 78.1848 151.417 78.1848C155.395 78.1848 158.864 77.3494 161.962 75.6746C165.06 73.9997 167.491 71.7144 169.25 68.8065C171.009 65.9027 171.888 62.5892 171.888 58.87C171.888 55.1508 171.009 51.7128 169.25 48.829Z" fill="#F5F5F5"/>
<path d="M11.113 50.7809H-0.12793V59.8419H11.113V50.7809Z" fill="#F5F5F5"/>
<path d="M155.483 30.4177C154.179 30.2049 152.824 30.0964 151.417 30.0964C150.01 30.0964 148.671 30.2049 147.38 30.4097V37.575V39.8804C148.659 39.6795 149.986 39.5711 151.377 39.5711C152.768 39.5711 154.171 39.6836 155.487 39.9005V39.8844V30.4177H155.483Z" fill="#F5F5F5"/>
</g>
<line y1="3" x2="91" y2="3" stroke="#F5F5F5" stroke-width="6"/>
<defs>
<clipPath id="clip0_9_2">
<rect width="319" height="49" fill="white" transform="translate(0 29)"/>
</clipPath>
</defs>
</svg>
