<svg width="299" height="78" viewBox="0 0 299 78" fill="none" xmlns="http://www.w3.org/2000/svg">
<g clip-path="url(#clip0_1_36)">
<path d="M89.9432 30.5852C87.1683 28.2277 83.2722 27.0471 78.2547 27.0471C75.642 27.0471 73.0716 27.3914 70.5435 28.0836C68.0119 28.7758 65.8505 29.7525 64.0558 31.0104L67.483 37.6579C68.6642 36.7233 70.1028 35.982 71.7987 35.4304C73.4912 34.8823 75.2154 34.6082 76.9713 34.6082C79.5417 34.6082 81.4493 35.1774 82.6939 36.3158C83.9386 37.4541 84.5591 39.0387 84.5591 41.0731H76.9713C73.6252 41.0731 70.9137 41.4912 68.8299 42.3239C66.7496 43.1566 65.2299 44.3055 64.2709 45.7706C63.3118 47.2323 62.8323 48.9398 62.8323 50.8933C62.8323 52.8468 63.3224 54.4525 64.2991 55.9563C65.2793 57.4601 66.6861 58.6512 68.5231 59.526C70.3602 60.4009 72.5639 60.8366 75.1343 60.8366C78.0326 60.8366 80.3985 60.2885 82.2355 59.1887C83.4802 58.4439 84.4534 57.4636 85.1726 56.2514V60.3447H94.1074V41.6212C94.1074 36.6214 92.7217 32.9428 89.9468 30.5817L89.9432 30.5852ZM81.8018 53.3036C80.536 54.0555 79.108 54.4314 77.5178 54.4314C75.843 54.4314 74.5278 54.0766 73.5688 53.3633C72.6097 52.6536 72.1302 51.6874 72.1302 50.4647C72.1302 49.3685 72.5462 48.4514 73.3854 47.7206C74.2211 46.9898 75.7619 46.6244 78.0044 46.6244H84.5521V49.9798C83.9809 51.445 83.0606 52.5517 81.7983 53.3036H81.8018Z" fill="white"/>
<path d="M129.296 33.2659V27.5354H100.895V34.8541H117.238L100.468 54.614V60.3446H129.846V53.0259H112.523L129.296 33.2659Z" fill="white"/>
<path d="M291.239 28.8459C289.854 29.6154 288.711 30.6167 287.812 31.8464V27.5353H278.694V60.3445H288.242V44.8534C288.242 41.7229 289.05 39.4145 290.661 37.9318C292.273 36.4491 294.385 35.7043 296.994 35.7043C297.36 35.7043 297.706 35.7148 298.034 35.7359C298.362 35.757 298.729 35.7886 299.138 35.8272V27.0435C296.035 27.0435 293.404 27.6443 291.243 28.8424L291.239 28.8459Z" fill="white"/>
<path d="M57.1978 36.8674H37.3679V44.7939H57.1978V36.8674Z" fill="white"/>
<path d="M37.368 44.7939H27.453V60.3448H37.368V44.7939Z" fill="white"/>
<path d="M59.8317 25.582V17.6555H27.453V36.8674H37.368V25.582H59.8317Z" fill="white"/>
<path d="M270.063 34.9455C268.553 32.4052 266.501 30.4517 263.913 29.092C261.322 27.7287 258.413 27.0471 255.19 27.0471C251.967 27.0471 248.843 27.7709 246.192 29.2114C245.691 29.482 245.219 29.7806 244.76 30.0898V40.8271H237.878C237.712 41.825 237.624 42.8579 237.624 43.9366C237.624 47.1901 238.4 50.0852 239.951 52.629C241.502 55.1693 243.692 57.172 246.53 58.6371C249.365 60.1023 252.662 60.8331 256.414 60.8331C259.393 60.8331 262.023 60.3763 264.308 59.4593C266.593 58.5458 268.49 57.2352 269.999 55.5276L264.918 50.0395C263.818 51.0971 262.602 51.8912 261.276 52.4182C259.95 52.9487 258.409 53.2123 256.653 53.2123C254.697 53.2123 252.99 52.8574 251.544 52.1441C250.095 51.4344 248.974 50.3979 248.177 49.0347C247.747 48.2968 247.433 47.4923 247.239 46.6244H272.139C272.178 46.2204 272.22 45.7812 272.263 45.3139C272.305 44.8466 272.323 44.4285 272.323 44.0631C272.323 40.5249 271.568 37.4858 270.059 34.9455H270.063ZM247.137 41.0731C247.296 40.0542 247.581 39.1231 248.029 38.2974C248.724 37.015 249.69 36.0206 250.938 35.3074C252.183 34.5977 253.621 34.2393 255.254 34.2393C256.886 34.2393 258.314 34.5941 259.538 35.3074C260.761 36.0206 261.72 37.0044 262.415 38.2658C262.873 39.0985 263.166 40.0401 263.321 41.0696H247.14L247.137 41.0731Z" fill="white"/>
<path d="M229.514 33.3572C228.351 31.221 226.761 29.6364 224.74 28.5999C222.72 27.5635 220.403 27.0435 217.794 27.0435C214.652 27.0435 211.867 27.7954 209.441 29.2991C208.055 30.1564 206.895 31.1929 205.94 32.3981C205.175 31.1578 204.202 30.1318 203.013 29.3307C200.75 27.8059 198.105 27.0435 195.087 27.0435C192.393 27.0435 189.996 27.6232 187.894 28.7827C186.681 29.4502 185.634 30.304 184.742 31.3299V27.5318H175.624V52.4145H185.172V43.8767C185.172 41.9267 185.479 40.321 186.089 39.0597C186.702 37.7983 187.559 36.8532 188.659 36.2243C189.759 35.5953 191.004 35.2791 192.393 35.2791C194.392 35.2791 195.933 35.9116 197.012 37.1694C198.091 38.4307 198.634 40.3808 198.634 43.0229V60.3445H208.182V43.8767C208.182 41.9267 208.489 40.321 209.099 39.0597C209.713 37.7983 210.569 36.8532 211.669 36.2243C212.77 35.5953 214.014 35.2791 215.403 35.2791C217.403 35.2791 218.954 35.9116 220.054 37.1694C221.158 38.4307 221.708 40.3808 221.708 43.0229V60.3445H231.256V41.5613C231.256 38.227 230.674 35.4935 229.511 33.3572H229.514Z" fill="white"/>
<path d="M194.724 52.418H185.176V60.3445H194.724V52.418Z" fill="white"/>
<path d="M166.936 35.1598C165.384 32.6407 163.244 30.6555 160.508 29.215C158.756 28.2909 156.848 27.6655 154.792 27.3317V35.6131C155.029 35.7185 155.265 35.8239 155.491 35.9539C156.756 36.6847 157.754 37.7212 158.491 39.0634C159.225 40.4055 159.591 42.0323 159.591 43.9436C159.591 45.855 159.225 47.429 158.491 48.7923C157.758 50.1555 156.756 51.2025 155.491 51.9334C154.225 52.6642 152.797 53.0296 151.207 53.0296C149.616 53.0296 148.188 52.6642 146.922 51.9334C145.657 51.2025 144.648 50.1555 143.894 48.7923C143.139 47.429 142.762 45.8128 142.762 43.9436C142.762 42.0744 143.139 40.4055 143.894 39.0634C144.648 37.7212 145.657 36.6847 146.922 35.9539C147.155 35.8204 147.402 35.7115 147.645 35.599V27.3247C145.554 27.655 143.629 28.2804 141.873 29.215C139.158 30.659 137.018 32.6512 135.446 35.1915C133.877 37.7317 133.09 40.6515 133.09 43.9436C133.09 47.2358 133.877 50.0923 135.446 52.6361C137.015 55.1763 139.158 57.179 141.873 58.6442C144.588 60.1093 147.698 60.8401 151.207 60.8401C154.715 60.8401 157.775 60.1093 160.508 58.6442C163.241 57.179 165.384 55.1798 166.936 52.6361C168.487 50.0958 169.263 47.1971 169.263 43.9436C169.263 40.6901 168.487 37.6826 166.936 35.1598Z" fill="white"/>
<path d="M27.453 36.8672H17.5381V44.7937H27.453V36.8672Z" fill="white"/>
<path d="M154.792 19.0538C153.643 18.8676 152.448 18.7727 151.207 18.7727C149.965 18.7727 148.784 18.8676 147.645 19.0468V25.3149V27.3316C148.774 27.156 149.944 27.0611 151.171 27.0611C152.398 27.0611 153.636 27.1595 154.796 27.3492V27.3351V19.0538H154.792Z" fill="white"/>
<path opacity="0.5" d="M7.62304 7.77538H17.538V0.0456543H7.62304H-0.134033V7.77538V70.2246V77.9543H7.62304H49.9167V70.2246H7.62304V7.77538Z" fill="white"/>
<path opacity="0.5" d="M69.7467 0.0456543H27.453V7.77538H69.7467V70.2246H59.8317V77.9543H69.7467H77.5038V70.2246V7.77538V0.0456543H69.7467Z" fill="white"/>
</g>
<defs>
<clipPath id="clip0_1_36">
<rect width="299" height="78" fill="white"/>
</clipPath>
</defs>
</svg>
