<svg width="231" height="60" viewBox="0 0 231 60" fill="none" xmlns="http://www.w3.org/2000/svg">
<g clip-path="url(#clip0_1_198)">
<path d="M69.488 23.527C67.3441 21.7135 64.334 20.8054 60.4577 20.8054C58.4392 20.8054 56.4534 21.0703 54.5002 21.6027C52.5443 22.1351 50.8745 22.8865 49.4879 23.8541L52.1357 28.9676C53.0483 28.2487 54.1597 27.6784 55.47 27.2541C56.7775 26.8325 58.1096 26.6216 59.4662 26.6216C61.452 26.6216 62.9257 27.0595 63.8873 27.9351C64.8489 28.8108 65.3283 30.0297 65.3283 31.5946H59.4662C56.881 31.5946 54.7862 31.9162 53.1763 32.5568C51.5691 33.1973 50.395 34.0811 49.6541 35.2081C48.9132 36.3324 48.5427 37.646 48.5427 39.1487C48.5427 40.6514 48.9213 41.8865 49.6759 43.0433C50.4332 44.2 51.5201 45.1162 52.9393 45.7892C54.3586 46.4622 56.0611 46.7973 58.0469 46.7973C60.2861 46.7973 62.1139 46.3757 63.5332 45.5297C64.4948 44.9568 65.2466 44.2027 65.8023 43.2703V46.4189H72.7051V32.0162C72.7051 28.1703 71.6345 25.3405 69.4907 23.5243L69.488 23.527ZM63.1981 41.0027C62.2202 41.5811 61.1169 41.8703 59.8884 41.8703C58.5945 41.8703 57.5784 41.5973 56.8374 41.0487C56.0965 40.5027 55.726 39.7595 55.726 38.8189C55.726 37.9757 56.0475 37.2703 56.6958 36.7081C57.3414 36.146 58.5318 35.8649 60.2643 35.8649H65.3229V38.446C64.8816 39.573 64.1706 40.4243 63.1954 41.0027H63.1981Z" fill="white"/>
<path d="M99.8912 25.5893V21.1812H77.9489V26.8109H90.5749L77.6193 42.0109V46.419H100.316V40.7893H86.9328L99.8912 25.5893Z" fill="white"/>
<path d="M225.004 22.1892C223.934 22.7811 223.051 23.5514 222.357 24.4973V21.1811H215.312V46.419H222.689V34.5027C222.689 32.0946 223.313 30.319 224.558 29.1784C225.803 28.0379 227.434 27.4649 229.45 27.4649C229.733 27.4649 230 27.473 230.254 27.4892C230.507 27.5054 230.79 27.5298 231.106 27.5595V20.8027C228.709 20.8027 226.677 21.2649 225.007 22.1865L225.004 22.1892Z" fill="white"/>
<path d="M44.1896 28.3594H28.8695V34.4567H44.1896V28.3594Z" fill="white"/>
<path d="M28.8695 34.4568H21.2095V46.419H28.8695V34.4568Z" fill="white"/>
<path d="M46.2245 19.6784V13.5811H21.2095V28.3594H28.8695V19.6784H46.2245Z" fill="white"/>
<path d="M208.644 26.8811C207.478 24.927 205.892 23.4243 203.893 22.3784C201.891 21.3297 199.643 20.8054 197.154 20.8054C194.664 20.8054 192.25 21.3622 190.202 22.4703C189.815 22.6784 189.45 22.9081 189.096 23.146V31.4054H183.778C183.65 32.173 183.582 32.9676 183.582 33.7973C183.582 36.3 184.182 38.527 185.38 40.4838C186.579 42.4378 188.27 43.9784 190.463 45.1054C192.653 46.2324 195.2 46.7946 198.099 46.7946C200.401 46.7946 202.433 46.4432 204.198 45.7378C205.963 45.0351 207.429 44.027 208.595 42.7135L204.669 38.4919C203.819 39.3054 202.88 39.9162 201.855 40.3216C200.831 40.7297 199.641 40.9324 198.284 40.9324C196.772 40.9324 195.454 40.6595 194.337 40.1108C193.217 39.5649 192.351 38.7676 191.735 37.7189C191.403 37.1514 191.161 36.5324 191.011 35.8649H210.248C210.278 35.5541 210.311 35.2162 210.343 34.8568C210.376 34.4973 210.39 34.1757 210.39 33.8946C210.39 31.173 209.807 28.8352 208.641 26.8811H208.644ZM190.932 31.5946C191.054 30.8108 191.275 30.0946 191.621 29.4595C192.158 28.473 192.904 27.7081 193.868 27.1595C194.83 26.6135 195.941 26.3379 197.203 26.3379C198.464 26.3379 199.567 26.6108 200.512 27.1595C201.458 27.7081 202.199 28.4649 202.735 29.4351C203.089 30.0757 203.315 30.8 203.435 31.5919H190.935L190.932 31.5946Z" fill="white"/>
<path d="M177.317 25.6595C176.418 24.0162 175.19 22.7973 173.629 22C172.068 21.2027 170.278 20.8027 168.262 20.8027C165.835 20.8027 163.683 21.3811 161.809 22.5379C160.738 23.1973 159.842 23.9946 159.104 24.9217C158.513 23.9676 157.761 23.1784 156.843 22.5622C155.094 21.3892 153.051 20.8027 150.719 20.8027C148.638 20.8027 146.786 21.2487 145.162 22.1406C144.225 22.6541 143.416 23.3108 142.727 24.1V21.1784H135.683V40.3189H143.059V33.7514C143.059 32.2514 143.296 31.0162 143.768 30.046C144.242 29.0757 144.903 28.3487 145.753 27.8649C146.603 27.3811 147.565 27.1379 148.638 27.1379C150.183 27.1379 151.373 27.6244 152.207 28.5919C153.04 29.5622 153.46 31.0622 153.46 33.0946V46.419H160.836V33.7514C160.836 32.2514 161.073 31.0162 161.545 30.046C162.019 29.0757 162.681 28.3487 163.531 27.8649C164.38 27.3811 165.342 27.1379 166.415 27.1379C167.96 27.1379 169.158 27.6244 170.008 28.5919C170.861 29.5622 171.286 31.0622 171.286 33.0946V46.419H178.663V31.9703C178.663 29.4054 178.213 27.3027 177.314 25.6595H177.317Z" fill="white"/>
<path d="M150.439 40.3215H143.062V46.4188H150.439V40.3215Z" fill="white"/>
<path d="M128.97 27.0458C127.772 25.108 126.118 23.581 124.004 22.4729C122.651 21.7621 121.177 21.281 119.589 21.0242V27.3945C119.771 27.4756 119.954 27.5566 120.128 27.6566C121.106 28.2188 121.877 29.0161 122.446 30.0485C123.013 31.081 123.296 32.3323 123.296 33.8026C123.296 35.2729 123.013 36.4837 122.446 37.5323C121.88 38.581 121.106 39.3864 120.128 39.9485C119.15 40.5107 118.047 40.7918 116.818 40.7918C115.59 40.7918 114.487 40.5107 113.509 39.9485C112.531 39.3864 111.752 38.581 111.169 37.5323C110.586 36.4837 110.294 35.2404 110.294 33.8026C110.294 32.3647 110.586 31.081 111.169 30.0485C111.752 29.0161 112.531 28.2188 113.509 27.6566C113.688 27.5539 113.879 27.4702 114.067 27.3837V21.0188C112.452 21.2729 110.964 21.7539 109.608 22.4729C107.51 23.5837 105.857 25.1161 104.642 27.0701C103.43 29.0242 102.822 31.2702 102.822 33.8026C102.822 36.335 103.43 38.5323 104.642 40.4891C105.854 42.4431 107.51 43.9837 109.608 45.1107C111.705 46.2377 114.108 46.7999 116.818 46.7999C119.529 46.7999 121.893 46.2377 124.004 45.1107C126.116 43.9837 127.772 42.4458 128.97 40.4891C130.169 38.535 130.768 36.3053 130.768 33.8026C130.768 31.2999 130.169 28.9864 128.97 27.0458Z" fill="white"/>
<path d="M21.2095 28.3594H13.5495V34.4567H21.2095V28.3594Z" fill="white"/>
<path d="M119.589 14.6567C118.701 14.5134 117.777 14.4404 116.818 14.4404C115.86 14.4404 114.947 14.5134 114.067 14.6512V19.4729V21.0242C114.939 20.8891 115.843 20.8161 116.791 20.8161C117.739 20.8161 118.695 20.8918 119.592 21.0377V21.0269V14.6567H119.589Z" fill="white"/>
<path opacity="0.5" d="M5.88941 5.9811H13.5495V0.0351562H5.88941H-0.103516V5.9811V54.0189V59.9649H5.88941H38.5645V54.0189H5.88941V5.9811Z" fill="white"/>
<path opacity="0.5" d="M53.8846 0.0351562H21.2095V5.9811H53.8846V54.0189H46.2245V59.9649H53.8846H59.8775V54.0189V5.9811V0.0351562H53.8846Z" fill="white"/>
</g>
<defs>
<clipPath id="clip0_1_198">
<rect width="231" height="60" fill="white"/>
</clipPath>
</defs>
</svg>
