<svg width="299" height="78" viewBox="0 0 299 78" fill="none" xmlns="http://www.w3.org/2000/svg">
<g clip-path="url(#clip0_1_253)">
<path d="M89.9433 30.5851C87.1684 28.2276 83.2722 27.047 78.2548 27.047C75.6421 27.047 73.0716 27.3913 70.5435 28.0835C68.0119 28.7757 65.8505 29.7524 64.0558 31.0103L67.483 37.6578C68.6642 36.7232 70.1028 35.9819 71.7988 35.4303C73.4912 34.8822 75.2154 34.6081 76.9713 34.6081C79.5417 34.6081 81.4493 35.1773 82.6939 36.3157C83.9386 37.454 84.5592 39.0387 84.5592 41.073H76.9713C73.6252 41.073 70.9138 41.4911 68.8299 42.3238C66.7496 43.1565 65.2299 44.3054 64.2709 45.7705C63.3118 47.2322 62.8323 48.9397 62.8323 50.8932C62.8323 52.8467 63.3224 54.4524 64.2991 55.9562C65.2793 57.46 66.6862 58.6511 68.5232 59.5259C70.3602 60.4008 72.5639 60.8365 75.1343 60.8365C78.0326 60.8365 80.3986 60.2884 82.2356 59.1887C83.4802 58.4438 84.4534 57.4635 85.1727 56.2513V60.3446H94.1074V41.6211C94.1074 36.6214 92.7217 32.9427 89.9468 30.5816L89.9433 30.5851ZM81.8019 53.3035C80.5361 54.0554 79.1081 54.4313 77.5179 54.4313C75.843 54.4313 74.5279 54.0765 73.5688 53.3632C72.6097 52.6535 72.1302 51.6873 72.1302 50.4646C72.1302 49.3684 72.5463 48.4514 73.3855 47.7205C74.2211 46.9897 75.7619 46.6243 78.0044 46.6243H84.5521V49.9797C83.9809 51.4449 83.0606 52.5516 81.7983 53.3035H81.8019Z" fill="#181818"/>
<path d="M129.296 33.2659V27.5354H100.895V34.8541H117.238L100.468 54.614V60.3446H129.846V53.0259H112.523L129.296 33.2659Z" fill="#181818"/>
<path d="M291.239 28.846C289.854 29.6154 288.711 30.6168 287.812 31.8465V27.5354H278.694V60.3446H288.242V44.8535C288.242 41.723 289.05 39.4146 290.661 37.9319C292.273 36.4492 294.385 35.7043 296.994 35.7043C297.36 35.7043 297.706 35.7149 298.034 35.736C298.362 35.757 298.729 35.7886 299.138 35.8273V27.0435C296.035 27.0435 293.404 27.6443 291.243 28.8424L291.239 28.846Z" fill="#181818"/>
<path d="M57.1979 36.8673H37.368V44.7938H57.1979V36.8673Z" fill="#181818"/>
<path d="M37.368 44.7938H27.453V60.3446H37.368V44.7938Z" fill="#181818"/>
<path d="M59.8317 25.5819V17.6554H27.453V36.8673H37.368V25.5819H59.8317Z" fill="#181818"/>
<path d="M270.063 34.9454C268.553 32.4051 266.501 30.4516 263.913 29.0919C261.322 27.7286 258.413 27.047 255.19 27.047C251.967 27.047 248.843 27.7708 246.192 29.2114C245.691 29.4819 245.219 29.7805 244.76 30.0897V40.827H237.878C237.712 41.8249 237.624 42.8578 237.624 43.9365C237.624 47.19 238.4 50.0851 239.951 52.6289C241.502 55.1692 243.692 57.1719 246.53 58.637C249.365 60.1022 252.662 60.833 256.414 60.833C259.393 60.833 262.023 60.3762 264.308 59.4592C266.593 58.5457 268.49 57.2351 269.999 55.5276L264.918 50.0394C263.818 51.097 262.602 51.8911 261.276 52.4181C259.95 52.9486 258.409 53.2122 256.653 53.2122C254.697 53.2122 252.99 52.8573 251.544 52.144C250.095 51.4343 248.974 50.3978 248.177 49.0346C247.747 48.2968 247.433 47.4922 247.239 46.6243H272.139C272.178 46.2203 272.22 45.7811 272.263 45.3138C272.305 44.8465 272.323 44.4284 272.323 44.063C272.323 40.5249 271.568 37.4857 270.059 34.9454H270.063ZM247.137 41.073C247.296 40.0541 247.581 39.123 248.029 38.2973C248.724 37.0149 249.69 36.0205 250.938 35.3073C252.183 34.5976 253.621 34.2392 255.254 34.2392C256.886 34.2392 258.314 34.594 259.538 35.3073C260.761 36.0205 261.72 37.0043 262.415 38.2657C262.873 39.0984 263.166 40.04 263.321 41.0695H247.14L247.137 41.073Z" fill="#181818"/>
<path d="M229.514 33.3573C228.351 31.2211 226.76 29.6365 224.74 28.6C222.72 27.5635 220.403 27.0435 217.794 27.0435C214.652 27.0435 211.867 27.7954 209.441 29.2992C208.055 30.1565 206.895 31.193 205.94 32.3981C205.175 31.1579 204.201 30.1319 203.013 29.3308C200.75 27.8059 198.105 27.0435 195.087 27.0435C192.393 27.0435 189.995 27.6233 187.894 28.7827C186.681 29.4503 185.634 30.3041 184.742 31.33V27.5319H175.624V52.4146H185.172V43.8768C185.172 41.9268 185.479 40.3211 186.089 39.0597C186.702 37.7984 187.559 36.8532 188.659 36.2243C189.759 35.5954 191.004 35.2792 192.393 35.2792C194.392 35.2792 195.933 35.9116 197.012 37.1695C198.091 38.4308 198.634 40.3808 198.634 43.023V60.3446H208.182V43.8768C208.182 41.9268 208.489 40.3211 209.099 39.0597C209.713 37.7984 210.569 36.8532 211.669 36.2243C212.77 35.5954 214.014 35.2792 215.403 35.2792C217.403 35.2792 218.954 35.9116 220.054 37.1695C221.158 38.4308 221.708 40.3808 221.708 43.023V60.3446H231.256V41.5613C231.256 38.227 230.674 35.4935 229.511 33.3573H229.514Z" fill="#181818"/>
<path d="M194.724 52.4181H185.176V60.3446H194.724V52.4181Z" fill="#181818"/>
<path d="M166.936 35.1597C165.384 32.6405 163.244 30.6554 160.508 29.2149C158.756 28.2908 156.848 27.6654 154.792 27.3316V35.613C155.029 35.7184 155.265 35.8238 155.491 35.9538C156.756 36.6846 157.754 37.7211 158.491 39.0632C159.225 40.4054 159.591 42.0322 159.591 43.9435C159.591 45.8549 159.225 47.4289 158.491 48.7922C157.758 50.1554 156.756 51.2024 155.491 51.9332C154.225 52.6641 152.797 53.0295 151.207 53.0295C149.616 53.0295 148.188 52.6641 146.923 51.9332C145.657 51.2024 144.648 50.1554 143.894 48.7922C143.139 47.4289 142.762 45.8127 142.762 43.9435C142.762 42.0743 143.139 40.4054 143.894 39.0632C144.648 37.7211 145.657 36.6846 146.923 35.9538C147.155 35.8203 147.402 35.7114 147.645 35.5989V27.3246C145.554 27.6549 143.629 28.2803 141.873 29.2149C139.158 30.6589 137.018 32.6511 135.446 35.1913C133.877 37.7316 133.09 40.6514 133.09 43.9435C133.09 47.2357 133.877 50.0922 135.446 52.6359C137.015 55.1762 139.158 57.1789 141.873 58.644C144.588 60.1092 147.698 60.84 151.207 60.84C154.715 60.84 157.775 60.1092 160.508 58.644C163.241 57.1789 165.384 55.1797 166.936 52.6359C168.487 50.0957 169.263 47.197 169.263 43.9435C169.263 40.69 168.487 37.6824 166.936 35.1597Z" fill="#181818"/>
<path d="M27.453 36.8673H17.538V44.7938H27.453V36.8673Z" fill="#181818"/>
<path d="M154.792 19.0538C153.643 18.8676 152.448 18.7727 151.207 18.7727C149.965 18.7727 148.784 18.8676 147.645 19.0468V25.3149V27.3316C148.774 27.1559 149.944 27.0611 151.171 27.0611C152.398 27.0611 153.636 27.1595 154.796 27.3492V27.3351V19.0538H154.792Z" fill="#181818"/>
<path opacity="0.5" d="M7.62307 7.77541H17.538V0.0456772H7.62307H-0.134003V7.77541V70.2246V77.9543H7.62307H49.9168V70.2246H7.62307V7.77541Z" fill="#181818"/>
<path opacity="0.5" d="M69.7467 0.0456772H27.453V7.77541H69.7467V70.2246H59.8317V77.9543H69.7467H77.5037V70.2246V7.77541V0.0456772H69.7467Z" fill="#181818"/>
</g>
<defs>
<clipPath id="clip0_1_253">
<rect width="299" height="78" fill="white"/>
</clipPath>
</defs>
</svg>
